<?xml version="1.0" standalone="no"?>
<!DOCTYPE svg PUBLIC "-//W3C//DTD SVG 20010904//EN"
 "http://www.w3.org/TR/2001/REC-SVG-20010904/DTD/svg10.dtd">
<svg version="1.0" xmlns="http://www.w3.org/2000/svg"
 width="72.000000pt" height="72.000000pt" viewBox="0 0 72.000000 72.000000"
 preserveAspectRatio="xMidYMid meet">

<g transform="translate(0.000000,72.000000) scale(0.100000,-0.100000)"
fill="#000000" stroke="none">
<path d="M0 360 l0 -360 360 0 360 0 0 360 0 360 -360 0 -360 0 0 -360z m422
163 c-8 -3 0 -13 20 -27 96 -65 37 -203 -84 -194 -44 3 -48 1 -70 -32 -54 -80
-155 -107 -197 -54 -12 15 -21 36 -21 48 0 24 26 66 41 66 6 0 3 -10 -5 -22
-21 -30 -20 -54 4 -78 24 -24 86 -27 118 -4 34 24 64 90 57 125 -5 22 -3 28 7
24 9 -4 20 12 33 47 11 29 21 56 23 61 6 13 -38 8 -68 -8 -16 -9 -37 -29 -46
-46 -8 -17 -18 -29 -21 -26 -7 8 12 39 46 71 19 19 49 33 88 41 61 14 98 18
75 8z m86 -215 c9 -9 12 -9 12 0 0 7 9 12 21 12 14 0 19 -5 17 -17 -2 -11 -11
-17 -21 -15 -14 2 -24 -10 -40 -47 -26 -64 -53 -72 -32 -10 20 55 19 70 -2 62
-16 -6 -16 -5 -4 10 16 20 32 22 49 5z m140 -24 c4 -40 -40 -97 -72 -92 -33 5
-34 57 0 97 35 42 68 39 72 -5z"/>
<path d="M375 480 c-14 -23 -53 -149 -47 -154 13 -14 81 -5 103 13 35 28 34
104 -1 131 -28 22 -46 25 -55 10z"/>
<path d="M593 287 c-15 -19 -21 -53 -13 -68 13 -20 40 8 40 42 0 32 -13 45
-27 26z"/>
</g>
</svg>
