<?xml version="1.0" standalone="no"?>
<!DOCTYPE svg PUBLIC "-//W3C//DTD SVG 20010904//EN"
 "http://www.w3.org/TR/2001/REC-SVG-20010904/DTD/svg10.dtd">
<svg version="1.0" xmlns="http://www.w3.org/2000/svg"
 width="900.000000pt" height="900.000000pt" viewBox="0 0 900.000000 900.000000"
 preserveAspectRatio="xMidYMid meet">

<g transform="translate(0.000000,900.000000) scale(0.100000,-0.100000)"
fill="#000000" stroke="none">
<path d="M0 4500 l0 -4500 4500 0 4500 0 0 4015 c0 4008 0 4015 -20 4015 -26
0 -26 21 0 40 19 14 20 26 20 472 l0 458 -1835 0 c-1662 0 -1835 -1 -1835 -16
0 -18 -23 -44 -39 -44 -6 0 -11 14 -11 30 l0 30 -2640 0 -2640 0 0 -4500z
m2110 4470 c0 -5 -11 -10 -25 -10 -14 0 -25 5 -25 10 0 6 11 10 25 10 14 0 25
-4 25 -10z m2106 -4 c30 -31 6 -76 -40 -76 -23 0 -26 4 -26 35 0 24 5 35 15
35 8 0 15 5 15 10 0 15 19 12 36 -4z m2234 -51 c0 -14 -4 -25 -10 -25 -5 0
-10 -7 -10 -15 0 -8 -7 -15 -15 -15 -9 0 -15 9 -15 25 0 16 6 25 15 25 8 0 15
7 15 15 0 8 5 15 10 15 6 0 10 -11 10 -25z m800 -26 c0 -22 -22 -49 -39 -49
-6 0 -11 16 -11 35 0 31 3 35 25 35 19 0 25 -5 25 -21z m-1350 -79 c0 -47 -2
-50 -25 -50 -22 0 -25 4 -25 40 0 29 4 40 15 40 8 0 15 5 15 10 0 6 5 10 10
10 6 0 10 -22 10 -50z m2580 29 c0 -22 -22 -49 -39 -49 -6 0 -11 16 -11 35 0
31 3 35 25 35 19 0 25 -5 25 -21z m-6370 -24 c0 -22 -4 -25 -40 -25 -22 0 -40
5 -40 10 0 6 7 10 15 10 8 0 15 7 15 15 0 9 9 15 25 15 20 0 25 -5 25 -25z
m4220 -15 c0 -36 -2 -40 -25 -40 -20 0 -25 5 -25 25 0 14 5 25 10 25 6 0 10 7
10 15 0 8 7 15 15 15 11 0 15 -11 15 -40z m-5830 -35 c0 -14 -4 -25 -10 -25
-5 0 -10 -7 -10 -15 0 -8 -7 -15 -15 -15 -8 0 -15 6 -15 14 0 8 -6 17 -12 20
-10 5 -10 7 0 12 6 3 12 12 12 20 0 8 10 14 25 14 20 0 25 -5 25 -25z m4130
-15 c0 -36 -2 -40 -25 -40 -16 0 -25 6 -25 15 0 8 5 15 10 15 6 0 10 11 10 25
0 16 6 25 15 25 11 0 15 -11 15 -40z m-4330 -15 c0 -14 -4 -25 -10 -25 -5 0
-10 11 -10 25 0 14 5 25 10 25 6 0 10 -11 10 -25z m480 -10 c0 -31 -3 -35 -25
-35 -22 0 -25 4 -25 35 0 31 3 35 25 35 22 0 25 -4 25 -35z m4170 0 c0 -19 -4
-35 -10 -35 -5 0 -10 16 -10 35 0 19 5 35 10 35 6 0 10 -16 10 -35z m-2490
-50 c0 -8 -7 -15 -15 -15 -8 0 -15 7 -15 15 0 8 7 15 15 15 8 0 15 -7 15 -15z
m3520 -35 c0 -47 -2 -50 -25 -50 -22 0 -25 4 -25 35 0 19 5 35 10 35 6 0 10 7
10 15 0 8 7 15 15 15 11 0 15 -12 15 -50z m-5830 -55 c0 -20 -5 -25 -25 -25
-16 0 -25 6 -25 15 0 8 7 15 15 15 8 0 15 5 15 10 0 6 5 10 10 10 6 0 10 -11
10 -25z m5350 15 c0 -5 -4 -10 -10 -10 -5 0 -10 5 -10 10 0 6 5 10 10 10 6 0
10 -4 10 -10z m-450 -30 c20 -37 3 -57 -68 -84 -37 -15 -78 -35 -91 -45 l-23
-18 92 -31 c355 -119 571 -415 571 -781 0 -249 -82 -451 -251 -622 -182 -184
-412 -271 -725 -272 -171 -1 -245 13 -359 70 -37 19 -69 33 -71 31 -1 -2 -26
-50 -55 -107 -259 -518 -641 -833 -1085 -893 -105 -14 -314 -5 -385 17 -82 26
-188 91 -256 159 -187 188 -218 509 -72 764 40 70 138 169 200 202 39 20 50
22 72 12 39 -18 36 -64 -6 -93 -139 -94 -198 -205 -198 -369 0 -153 40 -251
144 -355 117 -116 236 -157 451 -157 387 1 620 144 829 507 62 107 206 445
206 482 0 2 -9 3 -20 3 -21 0 -28 16 -10 22 6 2 -4 35 -24 78 -41 90 -70 194
-62 226 7 27 50 43 74 27 9 -5 24 -34 34 -64 35 -106 50 -141 58 -132 4 4 29
80 55 168 143 489 238 717 382 908 24 31 43 59 43 62 0 7 -55 6 -74 -1 -9 -3
-16 -17 -16 -30 0 -20 -5 -24 -30 -24 -20 0 -30 5 -30 15 0 8 7 15 15 15 8 0
15 5 15 10 0 26 -198 -5 -347 -55 -179 -60 -330 -161 -443 -298 -68 -82 -157
-248 -191 -355 -26 -81 -46 -101 -85 -83 -51 23 -43 91 30 243 136 284 346
493 614 608 172 74 331 106 577 117 148 6 150 7 203 40 69 45 217 102 264 103
28 0 40 -5 48 -20z m-2420 -45 c0 -8 -4 -15 -10 -15 -5 0 -10 7 -10 15 0 8 5
15 10 15 6 0 10 -7 10 -15z m1400 -10 c0 -16 -6 -25 -15 -25 -8 0 -15 -7 -15
-15 0 -8 -4 -15 -10 -15 -5 0 -10 18 -10 40 0 36 3 40 25 40 20 0 25 -5 25
-25z m4230 0 c0 -16 -6 -25 -15 -25 -9 0 -15 9 -15 25 0 16 6 25 15 25 9 0 15
-9 15 -25z m390 -65 c0 -5 -4 -10 -10 -10 -5 0 -10 -7 -10 -15 0 -8 -7 -15
-15 -15 -8 0 -15 7 -15 15 0 8 7 15 15 15 8 0 15 5 15 10 0 6 5 10 10 10 6 0
10 -4 10 -10z m-6040 -25 c0 -8 -7 -15 -15 -15 -9 0 -15 -9 -15 -25 0 -20 -5
-25 -25 -25 -20 0 -25 5 -25 25 0 16 6 25 15 25 8 0 15 7 15 15 0 9 9 15 25
15 16 0 25 -6 25 -15z m-2030 -25 c0 -5 -11 -10 -25 -10 -14 0 -25 5 -25 10 0
6 11 10 25 10 14 0 25 -4 25 -10z m1930 -15 c0 -16 -6 -25 -15 -25 -9 0 -15 9
-15 25 0 16 6 25 15 25 9 0 15 -9 15 -25z m870 15 c0 -5 -4 -10 -10 -10 -5 0
-10 -13 -10 -30 0 -20 -5 -30 -15 -30 -8 0 -15 7 -15 15 0 8 -4 15 -10 15 -14
0 -13 18 3 35 14 16 57 20 57 5z m-1130 -40 c0 -16 -4 -30 -10 -30 -5 0 -10
14 -10 30 0 17 5 30 10 30 6 0 10 -13 10 -30z m-320 -60 c0 -5 -4 -10 -10 -10
-5 0 -10 5 -10 10 0 6 5 10 10 10 6 0 10 -4 10 -10z m5870 -25 c0 -8 -4 -15
-10 -15 -5 0 -10 7 -10 15 0 8 5 15 10 15 6 0 10 -7 10 -15z m-850 -55 c0 -5
-4 -10 -10 -10 -5 0 -10 5 -10 10 0 6 5 10 10 10 6 0 10 -4 10 -10z m-3740
-25 c0 -8 -7 -15 -15 -15 -8 0 -15 7 -15 15 0 8 7 15 15 15 8 0 15 -7 15 -15z
m-2030 -25 c0 -5 -4 -10 -10 -10 -5 0 -10 -7 -10 -15 0 -8 -7 -15 -15 -15 -8
0 -15 7 -15 15 0 8 7 15 15 15 8 0 15 5 15 10 0 6 5 10 10 10 6 0 10 -4 10
-10z m450 -15 c0 -20 -5 -25 -25 -25 -20 0 -25 5 -25 25 0 20 5 25 25 25 20 0
25 -5 25 -25z m7250 15 c0 -5 -4 -10 -10 -10 -5 0 -10 -7 -10 -15 0 -8 -7 -15
-15 -15 -8 0 -15 7 -15 15 0 8 7 15 15 15 8 0 15 5 15 10 0 6 5 10 10 10 6 0
10 -4 10 -10z m-6900 -25 c0 -9 -9 -15 -25 -15 -16 0 -25 6 -25 15 0 9 9 15
25 15 16 0 25 -6 25 -15z m-770 -110 c0 -16 -6 -25 -15 -25 -8 0 -15 -7 -15
-15 0 -10 -11 -15 -35 -15 -31 0 -35 3 -35 25 0 14 5 25 10 25 6 0 10 7 10 15
0 11 11 15 40 15 36 0 40 -2 40 -25z m5620 0 c0 -16 -6 -25 -15 -25 -8 0 -15
-7 -15 -15 0 -8 -4 -15 -10 -15 -5 0 -10 11 -10 25 0 14 5 25 10 25 6 0 10 7
10 15 0 8 7 15 15 15 9 0 15 -9 15 -25z m-980 -30 c0 -14 -4 -25 -10 -25 -5 0
-10 11 -10 25 0 14 5 25 10 25 6 0 10 -11 10 -25z m1850 15 c0 -5 -4 -10 -10
-10 -5 0 -10 5 -10 10 0 6 5 10 10 10 6 0 10 -4 10 -10z m-5140 -25 c0 -8 -7
-15 -15 -15 -8 0 -15 7 -15 15 0 8 7 15 15 15 8 0 15 -7 15 -15z m4670 -25 c0
-5 -7 -10 -15 -10 -8 0 -15 -7 -15 -15 0 -9 -9 -15 -25 -15 -16 0 -25 6 -25
15 0 8 7 15 15 15 8 0 15 5 15 10 0 6 11 10 25 10 14 0 25 -4 25 -10z m1680
-25 c0 -8 -7 -15 -15 -15 -8 0 -15 7 -15 15 0 8 7 15 15 15 8 0 15 -7 15 -15z
m-500 -90 c0 -16 -6 -25 -15 -25 -9 0 -15 9 -15 25 0 16 6 25 15 25 9 0 15 -9
15 -25z m-6210 -60 c0 -28 -4 -35 -20 -35 -16 0 -20 7 -20 35 0 28 4 35 20 35
16 0 20 -7 20 -35z m-420 0 c0 -8 -7 -15 -15 -15 -8 0 -15 7 -15 15 0 8 7 15
15 15 8 0 15 -7 15 -15z m930 0 c0 -8 -7 -15 -15 -15 -8 0 -15 7 -15 15 0 8 7
15 15 15 8 0 15 -7 15 -15z m-2160 -50 c0 -8 7 -15 15 -15 8 0 15 -4 15 -10 0
-5 -18 -10 -40 -10 -22 0 -40 5 -40 10 0 6 7 10 15 10 8 0 15 7 15 15 0 8 5
15 10 15 6 0 10 -7 10 -15z m1650 -25 c0 -5 -9 -10 -20 -10 -11 0 -20 5 -20
10 0 6 9 10 20 10 11 0 20 -4 20 -10z m4980 -35 c0 -16 -6 -25 -15 -25 -9 0
-15 9 -15 25 0 16 6 25 15 25 9 0 15 -9 15 -25z m-4830 -106 c0 -17 -27 -39
-49 -39 -12 0 -21 5 -21 10 0 6 5 10 10 10 6 0 10 7 10 15 0 9 9 15 25 15 14
0 25 -5 25 -11z m6330 -4 c0 -8 -7 -15 -15 -15 -8 0 -15 7 -15 15 0 8 7 15 15
15 8 0 15 -7 15 -15z m-5420 -90 c0 -16 -6 -25 -15 -25 -9 0 -15 9 -15 25 0
16 6 25 15 25 9 0 15 -9 15 -25z m2670 10 c0 -8 -7 -15 -15 -15 -8 0 -15 7
-15 15 0 8 7 15 15 15 8 0 15 -7 15 -15z m2550 0 c0 -8 -4 -15 -10 -15 -5 0
-10 7 -10 15 0 8 5 15 10 15 6 0 10 -7 10 -15z m-170 -70 c0 -38 -12 -44 -38
-18 -12 12 -13 18 -4 21 6 2 12 10 12 18 0 8 7 14 15 14 10 0 15 -11 15 -35z
m-330 -5 c0 -5 -4 -10 -10 -10 -5 0 -10 -11 -10 -25 0 -16 -6 -25 -15 -25 -10
0 -15 11 -15 35 0 31 3 35 25 35 14 0 25 -4 25 -10z m-6650 -20 c0 -5 -4 -10
-10 -10 -5 0 -10 -7 -10 -15 0 -9 -9 -15 -25 -15 -27 0 -32 13 -12 35 14 16
57 20 57 5z m6900 -11 c0 -22 -22 -49 -39 -49 -6 0 -11 11 -11 25 0 16 6 25
15 25 8 0 15 5 15 10 0 6 5 10 10 10 6 0 10 -9 10 -21z m-2580 -39 c0 -5 -4
-10 -10 -10 -5 0 -10 -7 -10 -15 0 -9 -9 -15 -25 -15 -27 0 -32 13 -12 35 14
16 57 20 57 5z m-5500 -105 c0 -33 -2 -35 -35 -35 -19 0 -35 5 -35 10 0 6 5
10 10 10 6 0 10 7 10 15 0 8 7 15 15 15 8 0 15 5 15 10 0 6 5 10 10 10 6 0 10
-16 10 -35z m5450 -25 c0 -5 -4 -10 -10 -10 -5 0 -10 5 -10 10 0 6 5 10 10 10
6 0 10 -4 10 -10z m-2800 -35 c0 -18 -5 -25 -20 -25 -23 0 -26 14 -7 35 18 21
27 18 27 -10z m4730 -10 c0 -8 -7 -15 -15 -15 -8 0 -15 7 -15 15 0 8 7 15 15
15 8 0 15 -7 15 -15z m1070 4 c0 -16 -30 -43 -38 -34 -4 4 -1 10 6 12 6 3 12
11 12 19 0 8 5 14 10 14 6 0 10 -5 10 -11z m-7690 -44 c0 -22 -4 -25 -40 -25
-29 0 -40 4 -40 15 0 9 9 15 25 15 14 0 25 5 25 10 0 6 7 10 15 10 9 0 15 -9
15 -25z m5190 15 c0 -5 -4 -10 -10 -10 -5 0 -10 5 -10 10 0 6 5 10 10 10 6 0
10 -4 10 -10z m180 -65 c0 -14 -4 -25 -10 -25 -5 0 -10 11 -10 25 0 14 5 25
10 25 6 0 10 -11 10 -25z m-5370 -15 c0 -5 -7 -10 -15 -10 -8 0 -15 5 -15 10
0 6 7 10 15 10 8 0 15 -4 15 -10z m1420 -35 c0 -16 -6 -25 -15 -25 -8 0 -15
-4 -15 -10 0 -5 -4 -10 -10 -10 -5 0 -10 16 -10 35 0 31 3 35 25 35 20 0 25
-5 25 -25z m5630 10 c0 -8 -7 -15 -15 -15 -8 0 -15 7 -15 15 0 8 7 15 15 15 8
0 15 -7 15 -15z m-2200 -45 c0 -5 -13 -10 -30 -10 -16 0 -30 5 -30 10 0 6 14
10 30 10 17 0 30 -4 30 -10z m250 -40 c0 -20 -5 -30 -15 -30 -10 0 -15 10 -15
30 0 20 5 30 15 30 10 0 15 -10 15 -30z m290 4 c0 -23 -20 -54 -34 -54 -3 0
-6 18 -6 40 0 33 3 40 20 40 15 0 20 -7 20 -26z m180 11 c0 -8 -7 -15 -15 -15
-8 0 -15 7 -15 15 0 8 7 15 15 15 8 0 15 -7 15 -15z m-5300 -66 c0 -11 -6 -27
-14 -35 -17 -16 -56 -19 -56 -4 0 6 11 10 25 10 16 0 25 6 25 15 0 8 -7 15
-15 15 -8 0 -15 5 -15 10 0 6 11 10 25 10 19 0 25 -5 25 -21z m6600 11 c0 -5
-7 -10 -15 -10 -8 0 -15 5 -15 10 0 6 7 10 15 10 8 0 15 -4 15 -10z m-2192
-31 c46 -16 65 -53 70 -135 l4 -72 48 62 c114 149 281 197 372 106 40 -40 41
-94 4 -175 -31 -67 -61 -97 -94 -93 -18 2 -28 11 -35 33 -13 38 -23 45 -69 45
-27 0 -38 -4 -38 -15 0 -9 -9 -15 -24 -15 -81 0 -200 -210 -302 -530 -72 -228
-77 -242 -105 -262 -33 -25 -142 -37 -164 -18 -23 19 -19 47 25 161 82 218
179 597 180 702 0 27 -4 37 -15 37 -20 0 -110 -83 -96 -88 16 -5 13 -22 -4
-22 -9 0 -15 -9 -15 -25 0 -14 -4 -25 -10 -25 -5 0 -10 9 -10 20 0 15 -7 20
-24 20 -31 0 -56 24 -56 54 0 26 108 148 168 190 73 51 133 65 190 45z m1066
-5 c105 -36 157 -133 157 -293 0 -63 -8 -124 -21 -175 -24 -97 -104 -266 -165
-351 -102 -143 -265 -255 -371 -255 -29 0 -64 4 -78 10 -17 6 -26 6 -26 0 0
-6 -11 -10 -25 -10 -16 0 -25 6 -25 15 0 8 6 15 13 15 8 0 -3 18 -25 40 -26
28 -44 60 -55 100 -13 44 -23 60 -35 60 -14 0 -18 8 -18 35 0 23 5 35 14 35 9
0 15 22 19 78 7 94 45 219 98 326 140 282 360 432 543 370z m-5954 -14 c0 -5
-11 -10 -25 -10 -14 0 -25 5 -25 10 0 6 11 10 25 10 14 0 25 -4 25 -10z m7260
-15 c0 -16 -6 -25 -15 -25 -8 0 -15 -4 -15 -10 0 -5 -11 -10 -25 -10 -14 0
-25 5 -25 10 0 6 7 10 15 10 8 0 15 5 15 10 0 15 23 39 38 40 6 0 12 -11 12
-25z m-4960 -6 c0 -14 -25 -39 -39 -39 -6 0 -11 5 -11 10 0 6 7 10 15 10 8 0
15 7 15 15 0 8 5 15 10 15 6 0 10 -5 10 -11z m5260 -114 c0 -28 -14 -32 -36
-11 -21 22 -17 36 11 36 20 0 25 -5 25 -25z m-50 -40 c0 -8 -7 -15 -15 -15 -8
0 -15 7 -15 15 0 8 7 15 15 15 8 0 15 -7 15 -15z m-6900 -75 c0 -5 -7 -10 -15
-10 -8 0 -15 5 -15 10 0 6 7 10 15 10 8 0 15 -4 15 -10z m3550 0 c0 -5 -13
-10 -30 -10 -16 0 -30 5 -30 10 0 6 14 10 30 10 17 0 30 -4 30 -10z m2590 -25
c0 -8 -4 -15 -10 -15 -5 0 -10 7 -10 15 0 8 5 15 10 15 6 0 10 -7 10 -15z
m1030 -36 c0 -11 -6 -27 -14 -35 -8 -8 -24 -14 -35 -14 -16 0 -21 6 -21 25 0
20 5 25 25 25 14 0 25 5 25 10 0 6 5 10 10 10 6 0 10 -9 10 -21z m-7750 -14
c0 -8 -7 -15 -15 -15 -8 0 -15 7 -15 15 0 8 7 15 15 15 8 0 15 -7 15 -15z
m2030 -10 c0 -20 -5 -25 -25 -25 -14 0 -25 5 -25 10 0 6 5 10 10 10 6 0 10 7
10 15 0 8 7 15 15 15 9 0 15 -9 15 -25z m-1980 -40 c0 -8 -7 -15 -15 -15 -8 0
-15 7 -15 15 0 8 7 15 15 15 8 0 15 -7 15 -15z m2500 0 c0 -8 7 -15 15 -15 8
0 15 -4 15 -10 0 -5 -11 -10 -25 -10 -16 0 -25 -6 -25 -15 0 -11 -11 -15 -40
-15 -36 0 -40 3 -40 25 0 26 24 35 34 13 5 -10 7 -10 12 0 3 6 12 12 20 12 8
0 14 7 14 15 0 8 5 15 10 15 6 0 10 -7 10 -15z m320 -25 c0 -5 -4 -10 -10 -10
-5 0 -10 5 -10 10 0 6 5 10 10 10 6 0 10 -4 10 -10z m4100 0 c0 -5 -4 -10 -10
-10 -5 0 -10 5 -10 10 0 6 5 10 10 10 6 0 10 -4 10 -10z m-6000 -50 c0 -5 -4
-10 -10 -10 -5 0 -10 -7 -10 -15 0 -8 -7 -15 -15 -15 -8 0 -15 7 -15 15 0 8 7
15 15 15 8 0 15 5 15 10 0 6 5 10 10 10 6 0 10 -4 10 -10z m5280 -60 c0 -11
-7 -20 -15 -20 -8 0 -15 9 -15 20 0 11 7 20 15 20 8 0 15 -9 15 -20z m550 -35
c0 -8 -7 -15 -15 -15 -8 0 -15 7 -15 15 0 8 7 15 15 15 8 0 15 -7 15 -15z
m-4750 -75 c0 -5 -4 -10 -10 -10 -5 0 -10 -7 -10 -15 0 -8 -7 -15 -15 -15 -8
0 -15 7 -15 15 0 8 7 15 15 15 8 0 15 5 15 10 0 6 5 10 10 10 6 0 10 -4 10
-10z m4970 -50 c0 -5 -4 -10 -10 -10 -5 0 -10 5 -10 10 0 6 5 10 10 10 6 0 10
-4 10 -10z m-4420 -65 c0 -14 -4 -25 -10 -25 -5 0 -10 11 -10 25 0 14 5 25 10
25 6 0 10 -11 10 -25z m3750 -110 c0 -9 -9 -15 -25 -15 -16 0 -25 6 -25 15 0
9 9 15 25 15 16 0 25 -6 25 -15z m-5900 -50 c0 -9 -9 -15 -25 -15 -16 0 -25 6
-25 15 0 9 9 15 25 15 16 0 25 -6 25 -15z m6750 -105 c0 -5 -4 -10 -10 -10 -5
0 -10 5 -10 10 0 6 5 10 10 10 6 0 10 -4 10 -10z m580 -1020 c0 -5 -7 -10 -15
-10 -8 0 -15 5 -15 10 0 6 7 10 15 10 8 0 15 -4 15 -10z m-3230 -1830 l0 -60
60 0 c33 0 60 4 60 10 0 6 11 10 25 10 14 0 25 -4 25 -10 0 -5 7 -10 15 -10
11 0 15 12 15 50 0 28 5 50 10 50 6 0 10 -22 10 -50 0 -27 -4 -50 -10 -50 -6
0 -10 -37 -10 -90 0 -73 -3 -90 -15 -90 -8 0 -15 -4 -15 -10 0 -6 -30 -10 -70
-10 -40 0 -70 4 -70 10 0 6 -7 10 -15 10 -12 0 -15 15 -15 75 0 60 -3 75 -15
75 -12 0 -15 -19 -15 -110 l0 -110 90 0 c73 0 90 3 90 15 0 8 5 15 10 15 6 0
10 -7 10 -15 0 -9 9 -15 25 -15 16 0 25 6 25 15 0 8 7 15 15 15 8 0 15 -7 15
-15 0 -8 -7 -15 -15 -15 -9 0 -15 -9 -15 -25 l0 -25 290 0 c251 0 290 -2 290
-15 0 -8 5 -15 10 -15 6 0 10 -16 10 -35 0 -35 0 -35 -45 -35 -33 0 -45 -4
-45 -15 0 -13 -27 -15 -180 -15 -113 0 -180 -4 -180 -10 0 -6 -48 -10 -125
-10 -77 0 -125 4 -125 10 0 6 -32 10 -75 10 -60 0 -75 3 -75 15 0 13 21 15
125 15 77 0 125 4 125 10 0 6 14 10 30 10 20 0 30 5 30 15 0 8 -7 15 -15 15
-8 0 -15 5 -15 10 0 6 -7 10 -15 10 -8 0 -15 7 -15 15 0 13 -21 15 -125 15
l-125 0 0 -25 c0 -14 -4 -25 -10 -25 -5 0 -10 -7 -10 -15 0 -8 -7 -15 -15 -15
-8 0 -15 7 -15 15 0 10 -11 15 -35 15 -19 0 -35 5 -35 10 0 6 23 10 50 10 38
0 50 4 50 15 0 8 5 15 10 15 6 0 10 11 10 25 0 14 -4 25 -10 25 -6 0 -10 48
-10 125 0 77 4 125 10 125 6 0 10 27 10 60 0 47 3 60 15 60 12 0 15 -13 15
-60z m250 -190 c0 -38 -4 -50 -15 -50 -11 0 -15 12 -15 50 0 38 4 50 15 50 11
0 15 -12 15 -50z m680 -210 c0 -5 11 -10 25 -10 16 0 25 -6 25 -15 0 -11 -11
-15 -40 -15 -22 0 -40 -4 -40 -10 0 -5 -7 -10 -15 -10 -9 0 -15 9 -15 25 0 14
-4 25 -10 25 -5 0 -10 5 -10 10 0 6 18 10 40 10 22 0 40 -4 40 -10z m-780 -25
c0 -12 -13 -15 -60 -15 -47 0 -60 3 -60 15 0 12 13 15 60 15 47 0 60 -3 60
-15z"/>
<path d="M4651 8210 c-74 -105 -210 -407 -224 -497 -2 -16 -2 -22 0 -15 6 17
23 15 23 -3 0 -8 7 -15 15 -15 8 0 15 -4 15 -10 0 -5 -7 -10 -15 -10 -8 0 -15
-7 -15 -15 0 -18 -40 -20 -41 -2 0 6 -11 -26 -25 -73 -79 -273 -120 -403 -158
-506 l-43 -114 61 -29 c124 -59 340 -78 504 -45 148 30 299 118 392 230 168
202 197 531 70 790 -53 108 -207 255 -316 300 l-34 14 0 -40 c0 -38 -2 -40
-30 -40 -19 0 -30 5 -30 14 0 8 -6 17 -12 20 -10 5 -10 7 0 12 6 3 12 12 12
20 0 8 7 14 15 14 32 0 13 19 -32 33 -92 29 -88 30 -132 -33z m-71 -540 c0
-29 -4 -40 -15 -40 -8 0 -15 -4 -15 -10 0 -5 -11 -10 -25 -10 -22 0 -25 4 -25
35 0 24 5 35 15 35 8 0 15 7 15 15 0 9 9 15 25 15 23 0 25 -4 25 -40z m150 25
c0 -8 -6 -15 -14 -15 -8 0 -16 -6 -19 -12 -2 -8 -8 -9 -13 -4 -5 5 -4 11 4 13
6 3 12 11 12 19 0 8 7 14 15 14 8 0 15 -7 15 -15z m-100 -450 c0 -31 -3 -35
-25 -35 -14 0 -25 5 -25 10 0 6 5 10 10 10 6 0 10 11 10 25 0 16 6 25 15 25
10 0 15 -11 15 -35z"/>
<path d="M6434 6690 c-83 -26 -168 -144 -205 -287 -23 -90 -29 -246 -10 -310
33 -118 156 -122 259 -9 105 114 162 362 117 512 -24 83 -83 117 -161 94z m46
-70 c0 -36 -2 -40 -25 -40 -22 0 -25 4 -25 40 0 36 3 40 25 40 23 0 25 -4 25
-40z m50 -25 c0 -8 -7 -15 -15 -15 -8 0 -15 7 -15 15 0 8 7 15 15 15 8 0 15
-7 15 -15z m0 -110 c0 -16 -6 -25 -15 -25 -8 0 -15 -7 -15 -15 0 -8 -4 -15
-10 -15 -5 0 -10 11 -10 25 0 14 5 25 10 25 6 0 10 7 10 15 0 8 7 15 15 15 9
0 15 -9 15 -25z"/>
</g>
</svg>
